<?xml version="1.0" encoding="UTF-8" standalone="no"?>
<!DOCTYPE svg PUBLIC "-//W3C//DTD SVG 1.1//EN"
 "http://www.w3.org/Graphics/SVG/1.1/DTD/svg11.dtd">
<!-- Generated by graphviz version 2.50.0 (20211204.2007)
 -->
<!-- Title: G Pages: 1 -->
<svg width="1158pt" height="1426pt"
 viewBox="0.00 0.00 1158.20 1425.81" xmlns="http://www.w3.org/2000/svg" xmlns:xlink="http://www.w3.org/1999/xlink">
<g id="graph0" class="graph" transform="scale(1 1) rotate(0) translate(4 1421.81)">
<title>G</title><style>.edge>path:hover{stroke-width:8}</style>
<polygon fill="white" stroke="transparent" points="-4,4 -4,-1421.81 1154.2,-1421.81 1154.2,4 -4,4"/>
<g id="clust1" class="cluster">
<title>cluster_linchemin</title><style>.edge>path:hover{stroke-width:8}</style>
<polygon fill="none" stroke="black" points="446,-8 446,-1153.81 1040,-1153.81 1040,-8 446,-8"/>
<text text-anchor="middle" x="743" y="-1138.61" font-family="Times New Roman,serif" font-size="14.00">linchemin</text>
</g>
<g id="clust2" class="cluster">
<title>cluster_sklearn</title><style>.edge>path:hover{stroke-width:8}</style>
<polygon fill="none" stroke="black" points="20,-522.69 20,-604.12 272,-604.12 272,-522.69 20,-522.69"/>
<text text-anchor="middle" x="146" y="-588.92" font-family="Times New Roman,serif" font-size="14.00">sklearn</text>
</g>
<!-- linchemin -->
<g id="node1" class="node">
<title>linchemin</title><style>.edge>path:hover{stroke-width:8}</style>
<ellipse fill="#efb506" stroke="black" cx="885" cy="-999.84" rx="34.29" ry="18"/>
<text text-anchor="middle" x="885" y="-997.34" font-family="Helvetica,sans-Serif" font-size="10.00" fill="#000000">linchemin</text>
</g>
<!-- linchemin_IO -->
<g id="node2" class="node">
<title>linchemin_IO</title><style>.edge>path:hover{stroke-width:8}</style>
<ellipse fill="#c2a347" stroke="black" cx="979" cy="-269.96" rx="41.59" ry="18"/>
<text text-anchor="middle" x="979" y="-267.46" font-family="Helvetica,sans-Serif" font-size="10.00" fill="#000000">linchemin.IO</text>
</g>
<!-- linchemin_interfaces_facade -->
<g id="node14" class="node">
<title>linchemin_interfaces_facade</title><style>.edge>path:hover{stroke-width:8}</style>
<ellipse fill="#7a6628" stroke="black" cx="686" cy="-138.97" rx="43.68" ry="28.98"/>
<text text-anchor="middle" x="686" y="-147.47" font-family="Helvetica,sans-Serif" font-size="10.00" fill="#ffffff">linchemin.</text>
<text text-anchor="middle" x="686" y="-136.47" font-family="Helvetica,sans-Serif" font-size="10.00" fill="#ffffff">interfaces.</text>
<text text-anchor="middle" x="686" y="-125.47" font-family="Helvetica,sans-Serif" font-size="10.00" fill="#ffffff">facade</text>
</g>
<!-- linchemin_IO&#45;&gt;linchemin_interfaces_facade -->
<g id="edge2" class="edge">
<title>linchemin_IO&#45;&gt;linchemin_interfaces_facade</title><style>.edge>path:hover{stroke-width:8}</style>
<path fill="none" stroke="black" d="M954.89,-255.04C946.48,-250.37 936.92,-245.26 928,-240.97 861.47,-208.94 782.11,-176.96 732.87,-157.82"/>
<polygon fill="#000000" stroke="black" points="734.03,-154.51 723.44,-154.17 731.5,-161.04 734.03,-154.51"/>
</g>
<!-- linchemin_IO_io -->
<g id="node3" class="node">
<title>linchemin_IO_io</title><style>.edge>path:hover{stroke-width:8}</style>
<ellipse fill="#c2a347" stroke="black" cx="876" cy="-269.96" rx="43.27" ry="28.98"/>
<text text-anchor="middle" x="876" y="-278.46" font-family="Helvetica,sans-Serif" font-size="10.00" fill="#000000">linchemin.</text>
<text text-anchor="middle" x="876" y="-267.46" font-family="Helvetica,sans-Serif" font-size="10.00" fill="#000000">IO.</text>
<text text-anchor="middle" x="876" y="-256.46" font-family="Helvetica,sans-Serif" font-size="10.00" fill="#000000">io</text>
</g>
<!-- linchemin_IO_io&#45;&gt;linchemin_interfaces_facade -->
<g id="edge3" class="edge">
<title>linchemin_IO_io&#45;&gt;linchemin_interfaces_facade</title><style>.edge>path:hover{stroke-width:8}</style>
<path fill="none" stroke="black" d="M857.73,-243.6C847.43,-230.57 833.7,-215.13 819,-203.97 793.1,-184.29 760.2,-168.4 733.59,-157.37"/>
<polygon fill="#000000" stroke="black" points="734.68,-154.04 724.1,-153.53 732.06,-160.53 734.68,-154.04"/>
</g>
<!-- linchemin_cgu -->
<g id="node4" class="node">
<title>linchemin_cgu</title><style>.edge>path:hover{stroke-width:8}</style>
<ellipse fill="#f3bc16" stroke="black" cx="887" cy="-645.89" rx="45.15" ry="18"/>
<text text-anchor="middle" x="887" y="-643.39" font-family="Helvetica,sans-Serif" font-size="10.00" fill="#000000">linchemin.cgu</text>
</g>
<!-- linchemin_cgu&#45;&gt;linchemin_interfaces_facade -->
<g id="edge4" class="edge">
<title>linchemin_cgu&#45;&gt;linchemin_interfaces_facade</title><style>.edge>path:hover{stroke-width:8}</style>
<path fill="none" stroke="black" d="M869.97,-629.19C863.19,-622.12 855.86,-613.3 851,-604.12 819.87,-545.25 814,-525.52 814,-458.92 814,-458.92 814,-458.92 814,-268.96 814,-220.24 767.43,-183.37 730.47,-161.77"/>
<polygon fill="#000000" stroke="black" points="731.75,-158.47 721.32,-156.61 728.31,-164.57 731.75,-158.47"/>
</g>
<!-- linchemin_rem_graph_distance -->
<g id="node18" class="node">
<title>linchemin_rem_graph_distance</title><style>.edge>path:hover{stroke-width:8}</style>
<ellipse fill="#836a20" stroke="black" cx="515" cy="-363.94" rx="58.88" ry="28.98"/>
<text text-anchor="middle" x="515" y="-372.44" font-family="Helvetica,sans-Serif" font-size="10.00" fill="#ffffff">linchemin.</text>
<text text-anchor="middle" x="515" y="-361.44" font-family="Helvetica,sans-Serif" font-size="10.00" fill="#ffffff">rem.</text>
<text text-anchor="middle" x="515" y="-350.44" font-family="Helvetica,sans-Serif" font-size="10.00" fill="#ffffff">graph_distance</text>
</g>
<!-- linchemin_cgu&#45;&gt;linchemin_rem_graph_distance -->
<g id="edge5" class="edge">
<title>linchemin_cgu&#45;&gt;linchemin_rem_graph_distance</title><style>.edge>path:hover{stroke-width:8}</style>
<path fill="none" stroke="black" d="M860.47,-631.18C838.83,-619.97 811.44,-605.73 809,-604.12 708.95,-538.24 602.52,-445.11 549.38,-396.8"/>
<polygon fill="#000000" stroke="black" points="551.68,-394.16 541.94,-390 546.96,-399.33 551.68,-394.16"/>
</g>
<!-- linchemin_rem_route_metrics -->
<g id="node20" class="node">
<title>linchemin_rem_route_metrics</title><style>.edge>path:hover{stroke-width:8}</style>
<ellipse fill="#9c7c1b" stroke="black" cx="887" cy="-457.92" rx="53.98" ry="28.98"/>
<text text-anchor="middle" x="887" y="-466.42" font-family="Helvetica,sans-Serif" font-size="10.00" fill="#ffffff">linchemin.</text>
<text text-anchor="middle" x="887" y="-455.42" font-family="Helvetica,sans-Serif" font-size="10.00" fill="#ffffff">rem.</text>
<text text-anchor="middle" x="887" y="-444.42" font-family="Helvetica,sans-Serif" font-size="10.00" fill="#ffffff">route_metrics</text>
</g>
<!-- linchemin_cgu&#45;&gt;linchemin_rem_route_metrics -->
<g id="edge6" class="edge">
<title>linchemin_cgu&#45;&gt;linchemin_rem_route_metrics</title><style>.edge>path:hover{stroke-width:8}</style>
<path fill="none" stroke="black" d="M874.04,-628.42C869.27,-621.35 864.44,-612.75 862,-604.12 852.17,-569.29 855.28,-558.25 862,-522.69 863.7,-513.69 866.64,-504.34 869.92,-495.65"/>
<polygon fill="#000000" stroke="black" points="873.24,-496.77 873.72,-486.19 866.75,-494.17 873.24,-496.77"/>
</g>
<!-- linchemin_cgu_convert -->
<g id="node5" class="node">
<title>linchemin_cgu_convert</title><style>.edge>path:hover{stroke-width:8}</style>
<ellipse fill="#ac8b2b" stroke="black" cx="781" cy="-645.89" rx="43.27" ry="28.98"/>
<text text-anchor="middle" x="781" y="-654.39" font-family="Helvetica,sans-Serif" font-size="10.00" fill="#000000">linchemin.</text>
<text text-anchor="middle" x="781" y="-643.39" font-family="Helvetica,sans-Serif" font-size="10.00" fill="#000000">cgu.</text>
<text text-anchor="middle" x="781" y="-632.39" font-family="Helvetica,sans-Serif" font-size="10.00" fill="#000000">convert</text>
</g>
<!-- linchemin_cgu_translate -->
<g id="node8" class="node">
<title>linchemin_cgu_translate</title><style>.edge>path:hover{stroke-width:8}</style>
<ellipse fill="#836a20" stroke="black" cx="637" cy="-551.91" rx="43.27" ry="28.98"/>
<text text-anchor="middle" x="637" y="-560.41" font-family="Helvetica,sans-Serif" font-size="10.00" fill="#ffffff">linchemin.</text>
<text text-anchor="middle" x="637" y="-549.41" font-family="Helvetica,sans-Serif" font-size="10.00" fill="#ffffff">cgu.</text>
<text text-anchor="middle" x="637" y="-538.41" font-family="Helvetica,sans-Serif" font-size="10.00" fill="#ffffff">translate</text>
</g>
<!-- linchemin_cgu_convert&#45;&gt;linchemin_cgu_translate -->
<g id="edge7" class="edge">
<title>linchemin_cgu_convert&#45;&gt;linchemin_cgu_translate</title><style>.edge>path:hover{stroke-width:8}</style>
<path fill="none" stroke="black" d="M744.17,-630.49C728.17,-623.53 709.57,-614.44 694,-604.12 684.92,-598.11 675.82,-590.7 667.64,-583.41"/>
<polygon fill="#000000" stroke="black" points="669.85,-580.69 660.12,-576.51 665.12,-585.85 669.85,-580.69"/>
</g>
<!-- linchemin_cgu_convert&#45;&gt;linchemin_rem_route_metrics -->
<g id="edge8" class="edge">
<title>linchemin_cgu_convert&#45;&gt;linchemin_rem_route_metrics</title><style>.edge>path:hover{stroke-width:8}</style>
<path fill="none" stroke="black" d="M795.96,-618.64C814.43,-586.24 845.92,-531 866.59,-494.73"/>
<polygon fill="#000000" stroke="black" points="869.69,-496.36 871.6,-485.94 863.6,-492.9 869.69,-496.36"/>
</g>
<!-- linchemin_cgu_iron -->
<g id="node6" class="node">
<title>linchemin_cgu_iron</title><style>.edge>path:hover{stroke-width:8}</style>
<ellipse fill="#c2a347" stroke="black" cx="577" cy="-645.89" rx="43.27" ry="28.98"/>
<text text-anchor="middle" x="577" y="-654.39" font-family="Helvetica,sans-Serif" font-size="10.00" fill="#000000">linchemin.</text>
<text text-anchor="middle" x="577" y="-643.39" font-family="Helvetica,sans-Serif" font-size="10.00" fill="#000000">cgu.</text>
<text text-anchor="middle" x="577" y="-632.39" font-family="Helvetica,sans-Serif" font-size="10.00" fill="#000000">iron</text>
</g>
<!-- linchemin_cgu_iron&#45;&gt;linchemin_cgu_translate -->
<g id="edge9" class="edge">
<title>linchemin_cgu_iron&#45;&gt;linchemin_cgu_translate</title><style>.edge>path:hover{stroke-width:8}</style>
<path fill="none" stroke="black" d="M594.03,-618.78C600.42,-608.98 607.78,-597.7 614.58,-587.27"/>
<polygon fill="#000000" stroke="black" points="617.6,-589.05 620.13,-578.76 611.74,-585.23 617.6,-589.05"/>
</g>
<!-- linchemin_cgu_syngraph -->
<g id="node7" class="node">
<title>linchemin_cgu_syngraph</title><style>.edge>path:hover{stroke-width:8}</style>
<ellipse fill="#dfaa0b" stroke="black" cx="741" cy="-739.87" rx="43.27" ry="28.98"/>
<text text-anchor="middle" x="741" y="-748.37" font-family="Helvetica,sans-Serif" font-size="10.00" fill="#000000">linchemin.</text>
<text text-anchor="middle" x="741" y="-737.37" font-family="Helvetica,sans-Serif" font-size="10.00" fill="#000000">cgu.</text>
<text text-anchor="middle" x="741" y="-726.37" font-family="Helvetica,sans-Serif" font-size="10.00" fill="#000000">syngraph</text>
</g>
<!-- linchemin_cgu_syngraph&#45;&gt;linchemin_cgu_convert -->
<g id="edge10" class="edge">
<title>linchemin_cgu_syngraph&#45;&gt;linchemin_cgu_convert</title><style>.edge>path:hover{stroke-width:8}</style>
<path fill="none" stroke="black" d="M752.78,-711.77C756.69,-702.79 761.1,-692.64 765.26,-683.09"/>
<polygon fill="#000000" stroke="black" points="768.52,-684.36 769.3,-673.79 762.1,-681.57 768.52,-684.36"/>
</g>
<!-- linchemin_cgu_syngraph&#45;&gt;linchemin_cgu_translate -->
<g id="edge11" class="edge">
<title>linchemin_cgu_syngraph&#45;&gt;linchemin_cgu_translate</title><style>.edge>path:hover{stroke-width:8}</style>
<path fill="none" stroke="black" d="M730.01,-711.45C719.48,-686.2 702.48,-648.06 684,-616.9 677.8,-606.44 670.3,-595.6 663.12,-585.87"/>
<polygon fill="#000000" stroke="black" points="665.75,-583.54 656.94,-577.65 660.15,-587.75 665.75,-583.54"/>
</g>
<!-- linchemin_cgu_syngraph&#45;&gt;linchemin_interfaces_facade -->
<g id="edge12" class="edge">
<title>linchemin_cgu_syngraph&#45;&gt;linchemin_interfaces_facade</title><style>.edge>path:hover{stroke-width:8}</style>
<path fill="none" stroke="black" d="M735.57,-710.97C722.35,-641.62 688.68,-455.74 676,-298.95 672.6,-256.86 670.09,-246.01 674,-203.97 674.79,-195.48 676.15,-186.45 677.68,-177.93"/>
<polygon fill="#000000" stroke="black" points="681.17,-178.33 679.61,-167.85 674.3,-177.02 681.17,-178.33"/>
</g>
<!-- linchemin_cgu_syngraph&#45;&gt;linchemin_rem_graph_distance -->
<g id="edge13" class="edge">
<title>linchemin_cgu_syngraph&#45;&gt;linchemin_rem_graph_distance</title><style>.edge>path:hover{stroke-width:8}</style>
<path fill="none" stroke="black" d="M701.69,-727.54C639.78,-709.64 526.39,-676.68 525,-674.88 493.05,-633.5 503.82,-476.54 510.88,-403.17"/>
<polygon fill="#000000" stroke="black" points="514.39,-403.27 511.89,-392.98 507.42,-402.58 514.39,-403.27"/>
</g>
<!-- linchemin_cgu_syngraph&#45;&gt;linchemin_rem_route_metrics -->
<g id="edge14" class="edge">
<title>linchemin_cgu_syngraph&#45;&gt;linchemin_rem_route_metrics</title><style>.edge>path:hover{stroke-width:8}</style>
<path fill="none" stroke="black" d="M784.12,-738.85C831.37,-736.23 905.21,-723.91 941,-674.88 956.19,-654.06 957.18,-636.95 941,-616.9 924.16,-596.01 898.84,-625 882,-604.12 857.92,-574.27 864.21,-528.66 873.29,-496.54"/>
<polygon fill="#000000" stroke="black" points="876.74,-497.21 876.3,-486.62 870.04,-495.17 876.74,-497.21"/>
</g>
<!-- linchemin_cgu_translate&#45;&gt;linchemin_interfaces_facade -->
<g id="edge15" class="edge">
<title>linchemin_cgu_translate&#45;&gt;linchemin_interfaces_facade</title><style>.edge>path:hover{stroke-width:8}</style>
<path fill="none" stroke="black" d="M638.22,-522.87C639.7,-486.47 642,-420.98 642,-364.94 642,-364.94 642,-364.94 642,-268.96 642,-236.23 654.85,-201.21 666.66,-175.93"/>
<polygon fill="#000000" stroke="black" points="669.9,-177.27 671.1,-166.75 663.6,-174.22 669.9,-177.27"/>
</g>
<!-- linchemin_cgu_translate&#45;&gt;linchemin_rem_graph_distance -->
<g id="edge16" class="edge">
<title>linchemin_cgu_translate&#45;&gt;linchemin_rem_graph_distance</title><style>.edge>path:hover{stroke-width:8}</style>
<path fill="none" stroke="black" d="M620.04,-525.05C598.79,-492.66 562.28,-437.01 538.39,-400.6"/>
<polygon fill="#000000" stroke="black" points="541.02,-398.22 532.61,-391.78 535.17,-402.06 541.02,-398.22"/>
</g>
<!-- linchemin_cheminfo -->
<g id="node9" class="node">
<title>linchemin_cheminfo</title><style>.edge>path:hover{stroke-width:8}</style>
<ellipse fill="#f9bc06" stroke="black" cx="699" cy="-905.85" rx="43.27" ry="21.43"/>
<text text-anchor="middle" x="699" y="-908.85" font-family="Helvetica,sans-Serif" font-size="10.00" fill="#000000">linchemin.</text>
<text text-anchor="middle" x="699" y="-897.85" font-family="Helvetica,sans-Serif" font-size="10.00" fill="#000000">cheminfo</text>
</g>
<!-- linchemin_cheminfo&#45;&gt;linchemin_cgu_convert -->
<g id="edge17" class="edge">
<title>linchemin_cheminfo&#45;&gt;linchemin_cgu_convert</title><style>.edge>path:hover{stroke-width:8}</style>
<path fill="none" stroke="black" d="M717.18,-886.61C740.05,-862.23 778.13,-816.54 793,-768.86 801.54,-741.49 797.76,-709.14 792.27,-684.63"/>
<polygon fill="#000000" stroke="black" points="795.61,-683.54 789.84,-674.65 788.81,-685.19 795.61,-683.54"/>
</g>
<!-- linchemin_cheminfo&#45;&gt;linchemin_cgu_syngraph -->
<g id="edge18" class="edge">
<title>linchemin_cheminfo&#45;&gt;linchemin_cgu_syngraph</title><style>.edge>path:hover{stroke-width:8}</style>
<path fill="none" stroke="black" d="M704.15,-884.75C710.92,-858.32 722.94,-811.38 731.41,-778.31"/>
<polygon fill="#000000" stroke="black" points="734.82,-779.09 733.91,-768.54 728.04,-777.36 734.82,-779.09"/>
</g>
<!-- linchemin_cheminfo&#45;&gt;linchemin_cgu_translate -->
<g id="edge19" class="edge">
<title>linchemin_cheminfo&#45;&gt;linchemin_cgu_translate</title><style>.edge>path:hover{stroke-width:8}</style>
<path fill="none" stroke="black" d="M689.83,-885.09C684.42,-872.65 677.9,-856.12 674,-840.86 667.95,-817.18 649.83,-664.08 641.4,-591.27"/>
<polygon fill="#000000" stroke="black" points="644.85,-590.67 640.23,-581.14 637.9,-591.47 644.85,-590.67"/>
</g>
<!-- linchemin_cheminfo&#45;&gt;linchemin_rem_graph_distance -->
<g id="edge20" class="edge">
<title>linchemin_cheminfo&#45;&gt;linchemin_rem_graph_distance</title><style>.edge>path:hover{stroke-width:8}</style>
<path fill="none" stroke="black" d="M674.6,-888.17C627.76,-854.44 526.61,-772.93 490,-674.88 451.77,-572.47 469.76,-536.35 490,-428.93 491.7,-419.9 494.64,-410.52 497.92,-401.8"/>
<polygon fill="#000000" stroke="black" points="501.26,-402.89 501.72,-392.31 494.76,-400.29 501.26,-402.89"/>
</g>
<!-- linchemin_rem_node_metrics -->
<g id="node19" class="node">
<title>linchemin_rem_node_metrics</title><style>.edge>path:hover{stroke-width:8}</style>
<ellipse fill="#b0933a" stroke="black" cx="959" cy="-551.91" rx="53.07" ry="28.98"/>
<text text-anchor="middle" x="959" y="-560.41" font-family="Helvetica,sans-Serif" font-size="10.00" fill="#000000">linchemin.</text>
<text text-anchor="middle" x="959" y="-549.41" font-family="Helvetica,sans-Serif" font-size="10.00" fill="#000000">rem.</text>
<text text-anchor="middle" x="959" y="-538.41" font-family="Helvetica,sans-Serif" font-size="10.00" fill="#000000">node_metrics</text>
</g>
<!-- linchemin_cheminfo&#45;&gt;linchemin_rem_node_metrics -->
<g id="edge21" class="edge">
<title>linchemin_cheminfo&#45;&gt;linchemin_rem_node_metrics</title><style>.edge>path:hover{stroke-width:8}</style>
<path fill="none" stroke="black" d="M724.95,-888.68C733.04,-884.25 742.16,-879.85 751,-876.86 798.97,-860.63 943.14,-879.39 976,-840.86 1008.29,-802.99 982.44,-666.25 976,-616.9 974.87,-608.21 972.9,-599.03 970.7,-590.41"/>
<polygon fill="#000000" stroke="black" points="974.04,-589.36 968.05,-580.62 967.29,-591.19 974.04,-589.36"/>
</g>
<!-- linchemin_cheminfo&#45;&gt;linchemin_rem_route_metrics -->
<g id="edge22" class="edge">
<title>linchemin_cheminfo&#45;&gt;linchemin_rem_route_metrics</title><style>.edge>path:hover{stroke-width:8}</style>
<path fill="none" stroke="black" d="M727.64,-889.68C783.32,-858.33 904.77,-780.4 951,-674.88 961.34,-651.28 966.99,-637.11 951,-616.9 935.7,-597.55 912.96,-622.92 897,-604.12 883.78,-588.53 883.27,-534.65 884.69,-497.11"/>
<polygon fill="#000000" stroke="black" points="888.2,-497.14 885.14,-487 881.2,-496.84 888.2,-497.14"/>
</g>
<!-- linchemin_cheminfo_functions -->
<g id="node10" class="node">
<title>linchemin_cheminfo_functions</title><style>.edge>path:hover{stroke-width:8}</style>
<ellipse fill="#93751a" stroke="black" cx="741" cy="-999.84" rx="43.27" ry="28.98"/>
<text text-anchor="middle" x="741" y="-1008.34" font-family="Helvetica,sans-Serif" font-size="10.00" fill="#ffffff">linchemin.</text>
<text text-anchor="middle" x="741" y="-997.34" font-family="Helvetica,sans-Serif" font-size="10.00" fill="#ffffff">cheminfo.</text>
<text text-anchor="middle" x="741" y="-986.34" font-family="Helvetica,sans-Serif" font-size="10.00" fill="#ffffff">functions</text>
</g>
<!-- linchemin_cheminfo_functions&#45;&gt;linchemin_cgu_translate -->
<g id="edge23" class="edge">
<title>linchemin_cheminfo_functions&#45;&gt;linchemin_cgu_translate</title><style>.edge>path:hover{stroke-width:8}</style>
<path fill="none" stroke="black" d="M704.51,-984.2C683.71,-973.77 659.39,-957.55 647,-934.84 630.86,-905.27 634.04,-682 636.04,-591.16"/>
<polygon fill="#000000" stroke="black" points="639.54,-591.1 636.27,-581.02 632.54,-590.94 639.54,-591.1"/>
</g>
<!-- linchemin_cheminfo_reaction -->
<g id="node12" class="node">
<title>linchemin_cheminfo_reaction</title><style>.edge>path:hover{stroke-width:8}</style>
<ellipse fill="#dba605" stroke="black" cx="803" cy="-905.85" rx="43.27" ry="28.98"/>
<text text-anchor="middle" x="803" y="-914.35" font-family="Helvetica,sans-Serif" font-size="10.00" fill="#000000">linchemin.</text>
<text text-anchor="middle" x="803" y="-903.35" font-family="Helvetica,sans-Serif" font-size="10.00" fill="#000000">cheminfo.</text>
<text text-anchor="middle" x="803" y="-892.35" font-family="Helvetica,sans-Serif" font-size="10.00" fill="#000000">reaction</text>
</g>
<!-- linchemin_cheminfo_functions&#45;&gt;linchemin_cheminfo_reaction -->
<g id="edge24" class="edge">
<title>linchemin_cheminfo_functions&#45;&gt;linchemin_cheminfo_reaction</title><style>.edge>path:hover{stroke-width:8}</style>
<path fill="none" stroke="black" d="M758.27,-973.21C765,-963.23 772.81,-951.64 780,-940.97"/>
<polygon fill="#000000" stroke="black" points="782.92,-942.91 785.61,-932.66 777.12,-938.99 782.92,-942.91"/>
</g>
<!-- linchemin_cheminfo_functions&#45;&gt;linchemin_rem_graph_distance -->
<g id="edge25" class="edge">
<title>linchemin_cheminfo_functions&#45;&gt;linchemin_rem_graph_distance</title><style>.edge>path:hover{stroke-width:8}</style>
<path fill="none" stroke="black" d="M705.6,-983.17C683.03,-971.98 654.15,-955.3 633,-934.84 538.06,-843.02 520.56,-803.13 489,-674.88 462.88,-568.74 468.62,-536.13 490,-428.93 491.8,-419.92 494.78,-410.54 498.06,-401.83"/>
<polygon fill="#000000" stroke="black" points="501.4,-402.92 501.86,-392.33 494.9,-400.32 501.4,-402.92"/>
</g>
<!-- linchemin_cheminfo_ratam -->
<g id="node11" class="node">
<title>linchemin_cheminfo_ratam</title><style>.edge>path:hover{stroke-width:8}</style>
<ellipse fill="#9d8743" stroke="black" cx="989" cy="-1093.82" rx="43.27" ry="28.98"/>
<text text-anchor="middle" x="989" y="-1102.32" font-family="Helvetica,sans-Serif" font-size="10.00" fill="#000000">linchemin.</text>
<text text-anchor="middle" x="989" y="-1091.32" font-family="Helvetica,sans-Serif" font-size="10.00" fill="#000000">cheminfo.</text>
<text text-anchor="middle" x="989" y="-1080.32" font-family="Helvetica,sans-Serif" font-size="10.00" fill="#000000">ratam</text>
</g>
<!-- linchemin_cheminfo_reaction&#45;&gt;linchemin_cgu_convert -->
<g id="edge26" class="edge">
<title>linchemin_cheminfo_reaction&#45;&gt;linchemin_cgu_convert</title><style>.edge>path:hover{stroke-width:8}</style>
<path fill="none" stroke="black" d="M807.6,-876.89C812.99,-838.88 819.76,-768.99 808,-710.88 806.1,-701.51 802.79,-691.8 799.12,-682.86"/>
<polygon fill="#000000" stroke="black" points="802.25,-681.29 795.05,-673.52 795.84,-684.09 802.25,-681.29"/>
</g>
<!-- linchemin_cheminfo_reaction&#45;&gt;linchemin_cgu_syngraph -->
<g id="edge27" class="edge">
<title>linchemin_cheminfo_reaction&#45;&gt;linchemin_cgu_syngraph</title><style>.edge>path:hover{stroke-width:8}</style>
<path fill="none" stroke="black" d="M792.62,-877.41C782.26,-850.01 766.28,-807.74 754.85,-777.5"/>
<polygon fill="#000000" stroke="black" points="758.12,-776.25 751.31,-768.13 751.57,-778.73 758.12,-776.25"/>
</g>
<!-- linchemin_cheminfo_reaction&#45;&gt;linchemin_cgu_translate -->
<g id="edge28" class="edge">
<title>linchemin_cheminfo_reaction&#45;&gt;linchemin_cgu_translate</title><style>.edge>path:hover{stroke-width:8}</style>
<path fill="none" stroke="black" d="M777.75,-881.8C751.64,-856.57 711.61,-813.7 689,-768.86 686.97,-764.84 660.25,-651.83 645.92,-590.93"/>
<polygon fill="#000000" stroke="black" points="649.27,-589.85 643.57,-580.92 642.45,-591.45 649.27,-589.85"/>
</g>
<!-- linchemin_cheminfo_reaction&#45;&gt;linchemin_rem_graph_distance -->
<g id="edge29" class="edge">
<title>linchemin_cheminfo_reaction&#45;&gt;linchemin_rem_graph_distance</title><style>.edge>path:hover{stroke-width:8}</style>
<path fill="none" stroke="black" d="M771.5,-885.73C700.65,-841.98 532.58,-733.83 503,-674.88 490.96,-650.89 488.28,-530.32 500,-428.93 501,-420.3 502.73,-411.13 504.67,-402.52"/>
<polygon fill="#000000" stroke="black" points="508.09,-403.27 507.02,-392.73 501.28,-401.64 508.09,-403.27"/>
</g>
<!-- linchemin_cheminfo_reaction&#45;&gt;linchemin_rem_node_metrics -->
<g id="edge30" class="edge">
<title>linchemin_cheminfo_reaction&#45;&gt;linchemin_rem_node_metrics</title><style>.edge>path:hover{stroke-width:8}</style>
<path fill="none" stroke="black" d="M846.32,-904.22C892.01,-900.94 962.01,-887.94 996,-840.86 1025.13,-800.51 1008.9,-664.97 996,-616.9 993.33,-606.95 988.7,-596.95 983.6,-587.91"/>
<polygon fill="#000000" stroke="black" points="986.54,-586.01 978.4,-579.23 980.53,-589.6 986.54,-586.01"/>
</g>
<!-- linchemin_cheminfo_reaction&#45;&gt;linchemin_rem_route_metrics -->
<g id="edge31" class="edge">
<title>linchemin_cheminfo_reaction&#45;&gt;linchemin_rem_route_metrics</title><style>.edge>path:hover{stroke-width:8}</style>
<path fill="none" stroke="black" d="M846.16,-903.31C892.54,-899.27 965.2,-885.62 1007,-840.86 1038.19,-807.46 1031,-786.57 1031,-740.87 1031,-740.87 1031,-740.87 1031,-644.89 1031,-590.4 1051.95,-567.54 1021,-522.69 1003.59,-497.47 973.42,-481.91 946.11,-472.49"/>
<polygon fill="#000000" stroke="black" points="947.19,-469.16 936.6,-469.41 945.03,-475.82 947.19,-469.16"/>
</g>
<!-- linchemin_interfaces_cli -->
<g id="node13" class="node">
<title>linchemin_interfaces_cli</title><style>.edge>path:hover{stroke-width:8}</style>
<ellipse fill="#a48d46" stroke="black" cx="686" cy="-44.99" rx="43.68" ry="28.98"/>
<text text-anchor="middle" x="686" y="-53.49" font-family="Helvetica,sans-Serif" font-size="10.00" fill="#000000">linchemin.</text>
<text text-anchor="middle" x="686" y="-42.49" font-family="Helvetica,sans-Serif" font-size="10.00" fill="#000000">interfaces.</text>
<text text-anchor="middle" x="686" y="-31.49" font-family="Helvetica,sans-Serif" font-size="10.00" fill="#000000">cli</text>
</g>
<!-- linchemin_interfaces_facade&#45;&gt;linchemin_interfaces_cli -->
<g id="edge32" class="edge">
<title>linchemin_interfaces_facade&#45;&gt;linchemin_interfaces_cli</title><style>.edge>path:hover{stroke-width:8}</style>
<path fill="none" stroke="black" d="M686,-109.88C686,-101.84 686,-92.94 686,-84.39"/>
<polygon fill="#000000" stroke="black" points="689.5,-84.23 686,-74.23 682.5,-84.23 689.5,-84.23"/>
</g>
<!-- linchemin_metadata -->
<g id="node15" class="node">
<title>linchemin_metadata</title><style>.edge>path:hover{stroke-width:8}</style>
<ellipse fill="#c2a347" stroke="black" cx="885" cy="-1093.82" rx="43.27" ry="21.43"/>
<text text-anchor="middle" x="885" y="-1096.82" font-family="Helvetica,sans-Serif" font-size="10.00" fill="#000000">linchemin.</text>
<text text-anchor="middle" x="885" y="-1085.82" font-family="Helvetica,sans-Serif" font-size="10.00" fill="#000000">metadata</text>
</g>
<!-- linchemin_metadata&#45;&gt;linchemin -->
<g id="edge33" class="edge">
<title>linchemin_metadata&#45;&gt;linchemin</title><style>.edge>path:hover{stroke-width:8}</style>
<path fill="none" stroke="black" d="M885,-1072.4C885,-1059.41 885,-1042.43 885,-1028.27"/>
<polygon fill="#000000" stroke="black" points="888.5,-1028.1 885,-1018.1 881.5,-1028.1 888.5,-1028.1"/>
</g>
<!-- linchemin_rem -->
<g id="node16" class="node">
<title>linchemin_rem</title><style>.edge>path:hover{stroke-width:8}</style>
<ellipse fill="#e7b622" stroke="black" cx="750" cy="-269.96" rx="45.15" ry="18"/>
<text text-anchor="middle" x="750" y="-267.46" font-family="Helvetica,sans-Serif" font-size="10.00" fill="#000000">linchemin.rem</text>
</g>
<!-- linchemin_rem&#45;&gt;linchemin_interfaces_facade -->
<g id="edge34" class="edge">
<title>linchemin_rem&#45;&gt;linchemin_interfaces_facade</title><style>.edge>path:hover{stroke-width:8}</style>
<path fill="none" stroke="black" d="M741.63,-252.09C732.08,-232.84 716.17,-200.79 703.81,-175.87"/>
<polygon fill="#000000" stroke="black" points="706.85,-174.12 699.27,-166.71 700.58,-177.23 706.85,-174.12"/>
</g>
<!-- linchemin_rem_clustering -->
<g id="node17" class="node">
<title>linchemin_rem_clustering</title><style>.edge>path:hover{stroke-width:8}</style>
<ellipse fill="#7a6628" stroke="black" cx="515" cy="-269.96" rx="43.27" ry="28.98"/>
<text text-anchor="middle" x="515" y="-278.46" font-family="Helvetica,sans-Serif" font-size="10.00" fill="#ffffff">linchemin.</text>
<text text-anchor="middle" x="515" y="-267.46" font-family="Helvetica,sans-Serif" font-size="10.00" fill="#ffffff">rem.</text>
<text text-anchor="middle" x="515" y="-256.46" font-family="Helvetica,sans-Serif" font-size="10.00" fill="#ffffff">clustering</text>
</g>
<!-- linchemin_rem_clustering&#45;&gt;linchemin_interfaces_facade -->
<g id="edge35" class="edge">
<title>linchemin_rem_clustering&#45;&gt;linchemin_interfaces_facade</title><style>.edge>path:hover{stroke-width:8}</style>
<path fill="none" stroke="black" d="M541.3,-246.82C556.73,-234.03 576.73,-217.78 595,-203.97 612.05,-191.07 631.37,-177.36 647.81,-165.95"/>
<polygon fill="#000000" stroke="black" points="649.88,-168.78 656.12,-160.21 645.9,-163.02 649.88,-168.78"/>
</g>
<!-- linchemin_rem_graph_distance&#45;&gt;linchemin_interfaces_facade -->
<g id="edge36" class="edge">
<title>linchemin_rem_graph_distance&#45;&gt;linchemin_interfaces_facade</title><style>.edge>path:hover{stroke-width:8}</style>
<path fill="none" stroke="black" d="M536.79,-336.7C546.21,-325.21 557.27,-311.51 567,-298.95 599.1,-257.48 605.5,-245.89 637,-203.97 644.55,-193.91 652.84,-183.04 660.41,-173.15"/>
<polygon fill="#000000" stroke="black" points="663.26,-175.18 666.58,-165.12 657.71,-170.92 663.26,-175.18"/>
</g>
<!-- linchemin_rem_graph_distance&#45;&gt;linchemin_rem_clustering -->
<g id="edge37" class="edge">
<title>linchemin_rem_graph_distance&#45;&gt;linchemin_rem_clustering</title><style>.edge>path:hover{stroke-width:8}</style>
<path fill="none" stroke="black" d="M515,-334.84C515,-326.8 515,-317.9 515,-309.36"/>
<polygon fill="#000000" stroke="black" points="518.5,-309.2 515,-299.2 511.5,-309.2 518.5,-309.2"/>
</g>
<!-- linchemin_rem_node_metrics&#45;&gt;linchemin_rem_route_metrics -->
<g id="edge38" class="edge">
<title>linchemin_rem_node_metrics&#45;&gt;linchemin_rem_route_metrics</title><style>.edge>path:hover{stroke-width:8}</style>
<path fill="none" stroke="black" d="M938.56,-524.79C930.74,-514.8 921.71,-503.27 913.41,-492.66"/>
<polygon fill="#000000" stroke="black" points="916.16,-490.5 907.24,-484.78 910.65,-494.81 916.16,-490.5"/>
</g>
<!-- linchemin_rem_route_metrics&#45;&gt;linchemin_interfaces_facade -->
<g id="edge39" class="edge">
<title>linchemin_rem_route_metrics&#45;&gt;linchemin_interfaces_facade</title><style>.edge>path:hover{stroke-width:8}</style>
<path fill="none" stroke="black" d="M848.46,-437.7C802.97,-412.69 729.31,-364.32 696,-298.95 676.8,-261.26 676.97,-211.86 680.22,-178.2"/>
<polygon fill="#000000" stroke="black" points="683.74,-178.18 681.36,-167.85 676.79,-177.41 683.74,-178.18"/>
</g>
<!-- linchemin_rem_route_metrics&#45;&gt;linchemin_rem_clustering -->
<g id="edge40" class="edge">
<title>linchemin_rem_route_metrics&#45;&gt;linchemin_rem_clustering</title><style>.edge>path:hover{stroke-width:8}</style>
<path fill="none" stroke="black" d="M917.45,-433.81C929.36,-422.88 941.67,-408.75 948,-392.93 957.58,-369.01 964.88,-354.42 948,-334.95 910.94,-292.21 751.95,-307.27 696,-298.95 652.49,-292.48 603.15,-284.82 566.98,-279.16"/>
<polygon fill="#000000" stroke="black" points="567.1,-275.63 556.68,-277.54 566.01,-282.55 567.1,-275.63"/>
</g>
<!-- linchemin_rem_route_scoring -->
<g id="node21" class="node">
<title>linchemin_rem_route_scoring</title><style>.edge>path:hover{stroke-width:8}</style>
<ellipse fill="#a48d46" stroke="black" cx="886" cy="-363.94" rx="53.07" ry="28.98"/>
<text text-anchor="middle" x="886" y="-372.44" font-family="Helvetica,sans-Serif" font-size="10.00" fill="#000000">linchemin.</text>
<text text-anchor="middle" x="886" y="-361.44" font-family="Helvetica,sans-Serif" font-size="10.00" fill="#000000">rem.</text>
<text text-anchor="middle" x="886" y="-350.44" font-family="Helvetica,sans-Serif" font-size="10.00" fill="#000000">route_scoring</text>
</g>
<!-- linchemin_rem_route_metrics&#45;&gt;linchemin_rem_route_scoring -->
<g id="edge41" class="edge">
<title>linchemin_rem_route_metrics&#45;&gt;linchemin_rem_route_scoring</title><style>.edge>path:hover{stroke-width:8}</style>
<path fill="none" stroke="black" d="M886.69,-428.82C886.61,-420.79 886.51,-411.88 886.42,-403.34"/>
<polygon fill="#000000" stroke="black" points="889.92,-403.14 886.31,-393.18 882.92,-403.22 889.92,-403.14"/>
</g>
<!-- linchemin_utilities -->
<g id="node22" class="node">
<title>linchemin_utilities</title><style>.edge>path:hover{stroke-width:8}</style>
<ellipse fill="#c2a347" stroke="black" cx="781" cy="-1093.82" rx="43.27" ry="21.43"/>
<text text-anchor="middle" x="781" y="-1096.82" font-family="Helvetica,sans-Serif" font-size="10.00" fill="#000000">linchemin.</text>
<text text-anchor="middle" x="781" y="-1085.82" font-family="Helvetica,sans-Serif" font-size="10.00" fill="#000000">utilities</text>
</g>
<!-- linchemin_utilities&#45;&gt;linchemin_cheminfo_reaction -->
<g id="edge42" class="edge">
<title>linchemin_utilities&#45;&gt;linchemin_cheminfo_reaction</title><style>.edge>path:hover{stroke-width:8}</style>
<path fill="none" stroke="black" d="M785.38,-1072.44C787.93,-1059.92 791.03,-1043.5 793,-1028.83 796.75,-1000.95 799.29,-969.28 800.88,-945.2"/>
<polygon fill="#000000" stroke="black" points="804.38,-945.24 801.52,-935.04 797.4,-944.8 804.38,-945.24"/>
</g>
<!-- sklearn -->
<g id="node23" class="node">
<title>sklearn</title><style>.edge>path:hover{stroke-width:8}</style>
<ellipse fill="#c4319f" stroke="black" cx="236" cy="-551.91" rx="28.01" ry="18"/>
<text text-anchor="middle" x="236" y="-549.41" font-family="Helvetica,sans-Serif" font-size="10.00" fill="#ffffff">sklearn</text>
</g>
<!-- sklearn&#45;&gt;linchemin_rem_clustering -->
<g id="edge56" class="edge">
<title>sklearn&#45;&gt;linchemin_rem_clustering</title><style>.edge>path:hover{stroke-width:8}</style>
<path fill="none" stroke="black" d="M232.83,-522.69C229.36,-477.04 229.69,-386.85 278,-334.95 299.56,-311.79 375.83,-293.97 436.1,-283.08"/>
<polygon fill="#000000" stroke="black" points="436.76,-286.52 446,-281.33 435.54,-279.63 436.76,-286.52"/>
</g>
<!-- sklearn_cluster -->
<g id="node24" class="node">
<title>sklearn_cluster</title><style>.edge>path:hover{stroke-width:8}</style>
<ellipse fill="#b6539d" stroke="black" cx="154" cy="-551.91" rx="36.12" ry="21.43"/>
<text text-anchor="middle" x="154" y="-554.91" font-family="Helvetica,sans-Serif" font-size="10.00" fill="#ffffff">sklearn.</text>
<text text-anchor="middle" x="154" y="-543.91" font-family="Helvetica,sans-Serif" font-size="10.00" fill="#ffffff">cluster</text>
</g>
<!-- sklearn_metrics -->
<g id="node25" class="node">
<title>sklearn_metrics</title><style>.edge>path:hover{stroke-width:8}</style>
<ellipse fill="#b83d99" stroke="black" cx="64" cy="-551.91" rx="36.12" ry="21.43"/>
<text text-anchor="middle" x="64" y="-554.91" font-family="Helvetica,sans-Serif" font-size="10.00" fill="#ffffff">sklearn.</text>
<text text-anchor="middle" x="64" y="-543.91" font-family="Helvetica,sans-Serif" font-size="10.00" fill="#ffffff">metrics</text>
</g>
<!-- hdbscan -->
<g id="node26" class="node">
<title>hdbscan</title><style>.edge>path:hover{stroke-width:8}</style>
<ellipse fill="#b65353" stroke="black" cx="1119" cy="-551.91" rx="31.4" ry="18"/>
<text text-anchor="middle" x="1119" y="-549.41" font-family="Helvetica,sans-Serif" font-size="10.00" fill="#ffffff">hdbscan</text>
</g>
<!-- hdbscan&#45;&gt;linchemin_rem_clustering -->
<g id="edge1" class="edge">
<title>hdbscan&#45;&gt;linchemin_rem_clustering</title><style>.edge>path:hover{stroke-width:8}</style>
<path fill="none" stroke="black" d="M1115.71,-533.77C1110.3,-508.84 1097.66,-461.96 1074,-428.93 1063.85,-414.76 1055.22,-403.36 1046.92,-393.79"/>
<polygon fill="#b65353" stroke="black" points="1049.31,-391.21 1040,-386.15 1044.12,-395.91 1049.31,-391.21"/>
</g>
<!-- networkx -->
<g id="node27" class="node">
<title>networkx</title><style>.edge>path:hover{stroke-width:8}</style>
<ellipse fill="#80cc33" stroke="black" cx="333" cy="-822.86" rx="32.93" ry="18"/>
<text text-anchor="middle" x="333" y="-820.36" font-family="Helvetica,sans-Serif" font-size="10.00" fill="#000000">networkx</text>
</g>
<!-- networkx&#45;&gt;linchemin_cgu_translate -->
<g id="edge43" class="edge">
<title>networkx&#45;&gt;linchemin_cgu_translate</title><style>.edge>path:hover{stroke-width:8}</style>
<path fill="none" stroke="black" d="M342.57,-805.58C361.32,-774.01 404.17,-703.43 439.69,-656.5"/>
<polygon fill="#80cc33" stroke="black" points="442.67,-658.37 446,-648.31 437.12,-654.09 442.67,-658.37"/>
</g>
<!-- networkx&#45;&gt;linchemin_rem_graph_distance -->
<g id="edge44" class="edge">
<title>networkx&#45;&gt;linchemin_rem_graph_distance</title><style>.edge>path:hover{stroke-width:8}</style>
<path fill="none" stroke="black" d="M334.99,-804.53C341.93,-749.38 368.69,-573.99 440.95,-444.5"/>
<polygon fill="#80cc33" stroke="black" points="444.08,-446.07 446,-435.65 438,-442.6 444.08,-446.07"/>
</g>
<!-- numpy -->
<g id="node28" class="node">
<title>numpy</title><style>.edge>path:hover{stroke-width:8}</style>
<ellipse fill="#0cf346" stroke="black" cx="272" cy="-1399.81" rx="27.16" ry="18"/>
<text text-anchor="middle" x="272" y="-1397.31" font-family="Helvetica,sans-Serif" font-size="10.00" fill="#000000">numpy</text>
</g>
<!-- numpy&#45;&gt;linchemin_rem_clustering -->
<g id="edge45" class="edge">
<title>numpy&#45;&gt;linchemin_rem_clustering</title><style>.edge>path:hover{stroke-width:8}</style>
<path fill="none" stroke="black" d="M245.42,-1395.78C176.98,-1387.23 0,-1360.17 0,-1308.81 0,-1308.81 0,-1308.81 0,-456.92 0,-365.38 291.48,-306.32 435.87,-282.68"/>
<polygon fill="#0cf346" stroke="black" points="436.69,-286.1 446,-281.04 435.57,-279.19 436.69,-286.1"/>
</g>
<!-- numpy&#45;&gt;linchemin_rem_graph_distance -->
<g id="edge46" class="edge">
<title>numpy&#45;&gt;linchemin_rem_graph_distance</title><style>.edge>path:hover{stroke-width:8}</style>
<path fill="none" stroke="black" d="M299.12,-1398.62C437.69,-1397.32 1060,-1387.12 1060,-1308.81 1060,-1308.81 1060,-1308.81 1060,-550.91 1060,-526.84 1055.04,-509.13 1046.08,-494.96"/>
<polygon fill="#0cf346" stroke="black" points="1048.7,-492.61 1040,-486.57 1043.04,-496.72 1048.7,-492.61"/>
</g>
<!-- numpy&#45;&gt;sklearn -->
<g id="edge49" class="edge">
<title>numpy&#45;&gt;sklearn</title><style>.edge>path:hover{stroke-width:8}</style>
<path fill="none" stroke="black" d="M260.8,-1383.07C249.6,-1365.74 234,-1336.63 234,-1308.81 234,-1308.81 234,-1308.81 234,-738.87 234,-697.4 234.5,-650.73 235.01,-614.52"/>
<polygon fill="#0cf346" stroke="black" points="238.51,-614.16 235.15,-604.11 231.51,-614.06 238.51,-614.16"/>
</g>
<!-- pandas -->
<g id="node29" class="node">
<title>pandas</title><style>.edge>path:hover{stroke-width:8}</style>
<ellipse fill="#31c4c4" stroke="black" cx="292" cy="-645.89" rx="28.01" ry="18"/>
<text text-anchor="middle" x="292" y="-643.39" font-family="Helvetica,sans-Serif" font-size="10.00" fill="#000000">pandas</text>
</g>
<!-- numpy&#45;&gt;pandas -->
<g id="edge47" class="edge">
<title>numpy&#45;&gt;pandas</title><style>.edge>path:hover{stroke-width:8}</style>
<path fill="none" stroke="black" d="M272,-1381.56C272,-1363.44 272,-1334.12 272,-1308.81 272,-1308.81 272,-1308.81 272,-821.86 272,-769.44 280.97,-708.76 286.9,-674.39"/>
<polygon fill="#0cf346" stroke="black" points="290.4,-674.65 288.7,-664.2 283.51,-673.44 290.4,-674.65"/>
</g>
<!-- rdkit -->
<g id="node31" class="node">
<title>rdkit</title><style>.edge>path:hover{stroke-width:8}</style>
<polygon fill="#7505e5" stroke="black" points="716,-1271.81 713,-1275.81 692,-1275.81 689,-1271.81 662,-1271.81 662,-1235.81 716,-1235.81 716,-1271.81"/>
<text text-anchor="middle" x="689" y="-1251.31" font-family="Helvetica,sans-Serif" font-size="10.00" fill="#ffffff">rdkit</text>
</g>
<!-- numpy&#45;&gt;rdkit -->
<g id="edge48" class="edge">
<title>numpy&#45;&gt;rdkit</title><style>.edge>path:hover{stroke-width:8}</style>
<path fill="none" stroke="black" d="M295.61,-1390.66C364.99,-1366.7 568.53,-1296.41 652.32,-1267.48"/>
<polygon fill="#0cf346" stroke="black" points="653.61,-1270.73 661.92,-1264.16 651.33,-1264.12 653.61,-1270.73"/>
</g>
<!-- pandas&#45;&gt;linchemin_rem_clustering -->
<g id="edge50" class="edge">
<title>pandas&#45;&gt;linchemin_rem_clustering</title><style>.edge>path:hover{stroke-width:8}</style>
<path fill="none" stroke="black" d="M289.88,-627.86C285.97,-589.56 281.06,-494.81 318,-428.93 345.5,-379.89 394.89,-340.34 437.34,-313.07"/>
<polygon fill="#31c4c4" stroke="black" points="439.41,-315.91 446,-307.62 435.68,-309.98 439.41,-315.91"/>
</g>
<!-- pandas&#45;&gt;linchemin_rem_graph_distance -->
<g id="edge51" class="edge">
<title>pandas&#45;&gt;linchemin_rem_graph_distance</title><style>.edge>path:hover{stroke-width:8}</style>
<path fill="none" stroke="black" d="M298.1,-627.91C300.65,-620.62 303.57,-611.98 306,-604.12 329.79,-526.97 300.17,-489.09 354,-428.93 375.33,-405.1 406.71,-390.02 436.12,-380.54"/>
<polygon fill="#31c4c4" stroke="black" points="437.46,-383.8 446,-377.54 435.42,-377.1 437.46,-383.8"/>
</g>
<!-- pydot -->
<g id="node30" class="node">
<title>pydot</title><style>.edge>path:hover{stroke-width:8}</style>
<ellipse fill="#536cb6" stroke="black" cx="411" cy="-822.86" rx="27" ry="18"/>
<text text-anchor="middle" x="411" y="-820.36" font-family="Helvetica,sans-Serif" font-size="10.00" fill="#ffffff">pydot</text>
</g>
<!-- pydot&#45;&gt;linchemin_cgu_translate -->
<g id="edge52" class="edge">
<title>pydot&#45;&gt;linchemin_cgu_translate</title><style>.edge>path:hover{stroke-width:8}</style>
<path fill="none" stroke="black" d="M416.76,-805.04C421.83,-791.01 430.19,-769.37 441.64,-744.75"/>
<polygon fill="#536cb6" stroke="black" points="444.88,-746.09 446,-735.56 438.56,-743.09 444.88,-746.09"/>
</g>
<!-- rdkit&#45;&gt;linchemin_cheminfo -->
<g id="edge53" class="edge">
<title>rdkit&#45;&gt;linchemin_cheminfo</title><style>.edge>path:hover{stroke-width:8}</style>
<path fill="none" stroke="black" d="M683.2,-1235.78C678.15,-1219.6 671.47,-1194.27 670.21,-1163.86"/>
<polygon fill="#7505e5" stroke="black" points="673.71,-1163.73 670,-1153.81 666.71,-1163.88 673.71,-1163.73"/>
</g>
<!-- rdkit&#45;&gt;linchemin_cheminfo_functions -->
<g id="edge54" class="edge">
<title>rdkit&#45;&gt;linchemin_cheminfo_functions</title><style>.edge>path:hover{stroke-width:8}</style>
<path fill="none" stroke="black" d="M692.57,-1235.49C695.94,-1219.17 701.36,-1192.93 707.37,-1163.79"/>
<polygon fill="#7505e5" stroke="black" points="710.84,-1164.31 709.43,-1153.81 703.98,-1162.89 710.84,-1164.31"/>
</g>
<!-- rdkit&#45;&gt;linchemin_cheminfo_ratam -->
<g id="edge55" class="edge">
<title>rdkit&#45;&gt;linchemin_cheminfo_ratam</title><style>.edge>path:hover{stroke-width:8}</style>
<path fill="none" stroke="black" d="M716.35,-1246.39C762.47,-1234.67 857.57,-1206.6 928.48,-1159.63"/>
<polygon fill="#7505e5" stroke="black" points="930.72,-1162.34 937,-1153.81 926.77,-1156.56 930.72,-1162.34"/>
</g>
</g>
</svg>
